<?xml version="1.0" encoding="UTF-8"?><svg id="a" xmlns="http://www.w3.org/2000/svg" viewBox="0 0 733.23 712.86"><defs><style>.b{fill:#fdfdfb;}.c{fill:#252235;}.d{fill:none;stroke:#262626;stroke-miterlimit:10;stroke-width:8px;}.e{fill:#fdffd8;}.f{fill:#fec6ad;}.g{fill:#fcdfbf;}.h{fill:#b98843;}.i{fill:#d8b36a;}</style></defs><polygon class="i" points="730.07 91.35 654.07 36.55 2.72 603.74 101.98 662.58 654.78 708.13 730.07 91.35"/><polygon class="e" points="659.43 39.29 95.88 3.42 2.81 602.13 567.69 653.03 659.43 39.29"/><path class="h" d="m658.48,44.37c-.44-.2-85.5,563.78-91.66,604.25-.2,1.32-1.39,2.25-2.72,2.13-39.06-3.59-553.54-48.28-553.54-48.28,0,0-14.61,5.66,256.74,26.95,230.27,18.07,286.04,24.7,297.65,26.3,1.76.24,3.45.82,4.98,1.7l76.34,44-72.49-46.84c-1.82-1.18-2.79-3.32-2.46-5.47L659.62,57.68s2.01-11.9-1.15-13.31Z"/><path class="d" d="m91.7,13.21L4.05,598.23c-.31,2.24.89,5.51,2.82,6.69l93.39,55.31c1.55.91,3.53,1.74,5.32,1.89l544.55,46.71c3,.24,5.66-1.92,6.03-4.91l73-605.86c.33-2.78-.81-5.52-3.01-7.25l-63.16-48.28c-2.16-1.65-4.76-2.63-7.48-2.8L103.7,4.02c-7.21-.34-11.27,5.08-12,9.19Z"/><path class="c" d="m273.59,302.81c-3.64,1.32-5.1,5.57-5.42,6.48-3.96,11.46,9.78,28.67,24.39,36.39,20.17,10.66,40.63,2.52,42.97,1.55,16.2-6.75,32.06-23.52,28.74-34.55-.23-.77-1.25-4.17-4.26-5.71-7.35-3.76-15.41,9.29-32.42,13.06-2.11.47-13.3,2.78-25.26-1.55-15.39-5.57-21.45-18.32-28.74-15.68Z"/><circle class="c" cx="230.14" cy="281.81" r="27.87"/><ellipse class="b" cx="222.53" cy="269.46" rx="9.31" ry="8.24" transform="translate(-126.33 248.92) rotate(-47.08)"/><circle class="c" cx="410.27" cy="293.55" r="27.87"/><ellipse class="b" cx="401.69" cy="281.91" rx="9.31" ry="8.24" transform="translate(-65.91 430.83) rotate(-52.73)"/><ellipse class="f" cx="183.94" cy="319.8" rx="15.96" ry="28.84" transform="translate(-156.77 461.29) rotate(-82.65)"/><path class="g" d="m165.03,307.71c-1.91.93-3.35,3.24-2.68,3.93.73.76,3.11-.88,11.36-1.76,8.18-.87,14.02-.12,14.42-.95.38-.8-.32-2.69-2.9-3.19-4.91-.95-15.43-.36-20.2,1.97Z"/><ellipse class="f" cx="443" cy="339.03" rx="30.17" ry="15.31" transform="translate(-24.19 34.2) rotate(-4.3)"/><path class="g" d="m431.53,327.45c-2.49.79-2.62,2.08-1.84,2.84.85.82,5.14-.66,15.58-.9,10.34-.24,16.64,1.41,17.23.61.56-.77-.63-2.26-3.77-3.16-2.95-.84-8.32-1.94-13.45-1.88-5.39.05-10.56,1.49-13.74,2.49Z"/></svg>